<svg width="120" height="107" viewBox="0 0 120 107" fill="none" xmlns="http://www.w3.org/2000/svg">
<path d="M98.7023 47.6496H109.875C113.732 47.6496 116.858 44.5236 116.858 40.6665V9.94127C116.858 6.08424 113.732 2.95825 109.875 2.95825H9.31966C5.46263 2.95825 2.33664 6.08424 2.33664 9.94127V40.6665C2.33664 44.5236 5.46263 47.6496 9.31966 47.6496H98.7023Z" fill="#FF8280"/>
<path d="M88.0168 83.9394L107.357 103.28C109.531 105.454 113.055 105.454 115.228 103.28C117.402 101.107 117.402 97.5835 115.228 95.4104L95.8873 76.0689L88.0168 83.9394Z" fill="#151FFF"/>
<path d="M100.1 60.219C100.1 75.6453 87.5939 88.1511 72.1676 88.1511C56.7413 88.1511 44.2356 75.6453 44.2356 60.219C44.2356 44.7927 56.7413 32.2869 72.1676 32.2869C87.5939 32.2869 100.1 44.7927 100.1 60.219Z" fill="#F2FAFF"/>
<path d="M90.3236 60.219C90.3236 70.2462 82.195 78.3749 72.1678 78.3749C62.1406 78.3749 54.0119 70.2462 54.0119 60.219C54.0119 50.1918 62.1406 42.0632 72.1678 42.0632C82.195 42.0632 90.3236 50.1918 90.3236 60.219Z" fill="#72D8FF"/>
<path d="M72.1678 39.7355C60.8731 39.7355 51.6843 48.9243 51.6843 60.219C51.6843 71.5136 60.8731 80.7025 72.1678 80.7025C83.4625 80.7025 92.6513 71.5136 92.6513 60.219C92.6513 48.9243 83.4625 39.7355 72.1678 39.7355ZM72.1678 76.0472C63.4399 76.0472 56.3396 68.9468 56.3396 60.219C56.3396 51.4911 63.4399 44.3908 72.1678 44.3908C80.8957 44.3908 87.996 51.4911 87.996 60.219C87.996 68.9468 80.8957 76.0472 72.1678 76.0472Z" fill="#000124"/>
<path d="M72.1677 49.7454C70.8821 49.7454 69.8401 50.7874 69.8401 52.0731C69.8401 53.3588 70.8821 54.4008 72.1677 54.4008C75.3756 54.4008 77.986 57.0112 77.986 60.219C77.986 61.5047 79.028 62.5467 80.3137 62.5467C81.5993 62.5467 82.6413 61.5047 82.6413 60.219C82.6413 54.4435 77.9433 49.7454 72.1677 49.7454V49.7454Z" fill="#000124"/>
<path d="M14.3577 18.1817C13.7667 17.0406 12.3629 16.5942 11.2208 17.1843C10.0788 17.7753 9.63239 19.1801 10.2234 20.3221L16.489 32.426C16.8945 33.2098 17.7147 33.6889 18.5912 33.6835C19.4732 33.6698 20.2724 33.1588 20.6543 32.3633L24.4477 24.4655L28.5675 32.426C28.9684 33.1989 29.7658 33.6835 30.6351 33.6835H30.6696C31.5525 33.6698 32.3508 33.1588 32.7336 32.3633L38.5464 20.2594C39.1029 19.101 38.6146 17.7098 37.4563 17.1534C36.297 16.5969 34.9067 17.0852 34.3503 18.2445L30.5569 26.1422L26.4362 18.1817C26.0307 17.398 25.2123 16.917 24.3349 16.9242C23.452 16.9379 22.6528 17.4489 22.2709 18.2445L18.4785 26.1422L14.3577 18.1817Z" fill="#000124"/>
<path d="M29.335 5.28596C29.9478 5.28596 30.5479 5.03683 30.9807 4.60402C31.4144 4.17122 31.6626 3.57021 31.6626 2.95829C31.6626 2.34636 31.4144 1.74535 30.9807 1.31255C30.5479 0.879749 29.9478 0.630615 29.335 0.630615C28.723 0.630615 28.1229 0.879749 27.6901 1.31255C27.2564 1.74535 27.0073 2.34636 27.0073 2.95829C27.0073 3.57021 27.2564 4.17122 27.6901 4.60402C28.1229 5.03683 28.723 5.28596 29.335 5.28596Z" fill="#000124"/>
<path d="M100.802 80.9844C100.369 81.4172 100.12 82.0173 100.12 82.6301C100.12 83.242 100.369 83.8421 100.802 84.2758C101.237 84.7086 101.836 84.9578 102.448 84.9578C103.059 84.9578 103.66 84.7086 104.093 84.2758C104.529 83.8421 104.775 83.242 104.775 82.6301C104.775 82.0173 104.529 81.4172 104.093 80.9844C103.66 80.5516 103.062 80.3024 102.448 80.3024C101.836 80.3024 101.235 80.5516 100.802 80.9844Z" fill="#000124"/>
<path d="M119.186 40.036V9.31069C119.186 4.17708 115.009 0 109.875 0H39.1112C37.8264 0 36.7835 1.042 36.7835 2.32767C36.7835 3.61335 37.8264 4.65534 39.1112 4.65534H109.875C112.442 4.65534 114.53 6.74388 114.53 9.31069V40.036C114.53 42.6028 112.442 44.6913 109.875 44.6913H98.7023C98.635 44.6913 98.5696 44.6958 98.5041 44.7013C94.9117 38.3711 89.1043 33.4576 82.1422 31.0199L85.5928 23.8359L89.7135 31.7955C90.1136 32.5692 90.911 33.0529 91.7802 33.0529H91.8157C92.6976 33.0393 93.4969 32.5283 93.8788 31.7327L99.6916 19.6288C100.248 18.4704 99.7598 17.0802 98.6014 16.5237C97.443 15.9664 96.0518 16.4546 95.4954 17.6139L91.7029 25.5116L87.5822 17.5512C87.1767 16.7674 86.3593 16.2864 85.48 16.2946C84.5972 16.3073 83.7988 16.8183 83.4169 17.6139L79.6236 25.5116L75.5038 17.5512C74.9128 16.4101 73.508 15.9636 72.366 16.5547C71.224 17.1457 70.7784 18.5495 71.3685 19.6916L76.5203 29.6433C75.0992 29.4378 73.6462 29.3287 72.1687 29.3287C69.3073 29.3287 66.5368 29.7287 63.9109 30.4743L69.12 19.6288C69.6764 18.4704 69.1881 17.0802 68.0289 16.5237C66.8705 15.9664 65.4793 16.4546 64.9238 17.6139L61.1304 25.5116L57.0097 17.5512C56.6042 16.7674 55.7904 16.2864 54.9075 16.2946C54.0255 16.3073 53.2263 16.8183 52.8444 17.6139L49.052 25.5116L44.9313 17.5512C44.3402 16.4101 42.9364 15.9636 41.7944 16.5547C40.6523 17.1457 40.2059 18.5495 40.7969 19.6916L47.0625 31.7955C47.4681 32.5792 48.2846 33.0584 49.1647 33.0529C50.0467 33.0393 50.8459 32.5283 51.2278 31.7327L55.0212 23.8359L59.141 31.7955C59.2101 31.9291 59.2946 32.05 59.3865 32.1655C53.6782 34.8369 48.9356 39.2376 45.8378 44.6913H9.31969C6.75289 44.6913 4.66435 42.6028 4.66435 40.036V9.31069C4.66435 6.74388 6.75289 4.65534 9.31969 4.65534H18.8613C20.147 4.65534 21.189 3.61335 21.189 2.32767C21.189 1.042 20.147 0 18.8613 0H9.31969C4.18608 0 0.00900269 4.17708 0.00900269 9.31069V40.036C0.00900269 45.1705 4.18608 49.3466 9.31969 49.3466H43.6938C42.539 52.5472 41.908 55.9951 41.908 59.5884C41.908 76.274 55.4822 89.8481 72.1677 89.8481C77.6505 89.8481 82.7978 88.3824 87.2376 85.822L105.712 104.296C107.25 105.835 109.271 106.604 111.293 106.604C113.314 106.604 115.335 105.835 116.874 104.296C119.951 101.218 119.951 96.211 116.874 93.1332L109.615 85.8747C108.706 84.9664 107.232 84.9655 106.324 85.8747C105.414 86.784 105.414 88.257 106.324 89.1662L113.582 96.4256C114.844 97.6877 114.844 99.7417 113.582 101.005C112.32 102.267 110.266 102.267 109.004 101.005L91.1419 83.1415C98.0195 77.5906 102.427 69.0955 102.427 59.5884C102.427 55.9951 101.796 52.5472 100.642 49.3466H109.875C115.01 49.3466 119.186 45.1696 119.186 40.036ZM72.1677 85.1928C58.0499 85.1928 46.5634 73.7063 46.5634 59.5884C46.5634 45.4705 58.0499 33.984 72.1677 33.984C86.2856 33.984 97.7721 45.4705 97.7721 59.5884C97.7721 73.7063 86.2865 85.1928 72.1677 85.1928Z" fill="#000124"/>
</svg>
