<svg width="120" height="120" viewBox="0 0 120 120" fill="none" xmlns="http://www.w3.org/2000/svg">
<path d="M89.3554 110.885L78.0148 88.5884H42.9865L31.646 110.885H89.3554Z" fill="#B3B3B3"/>
<path d="M14.0975 2.58707H106.904C112.475 2.58707 116.992 7.02701 116.992 12.5037V79.9371C116.992 85.4138 112.475 89.8537 106.904 89.8537H14.0975C8.52638 89.8537 4.00989 85.4138 4.00989 79.9371V12.5037C4.00989 7.02701 8.52638 2.58707 14.0975 2.58707Z" fill="#29ABE2"/>
<path d="M106.904 89.8537H14.0975C8.52638 89.8537 4.00989 85.4138 4.00989 79.9371V73.9871H116.992V79.9371C116.992 85.4138 112.475 89.8537 106.904 89.8537Z" fill="#C4C5C7"/>
<path d="M20.1501 109.687H100.851C103.08 109.687 104.886 111.463 104.886 113.654C104.886 115.845 103.08 117.62 100.851 117.62H20.1501C17.9215 117.62 16.1151 115.845 16.1151 113.654C16.1151 111.463 17.9215 109.687 20.1501 109.687Z" fill="#C4C5C7"/>
<path d="M45.5165 73.9871L46.5717 70.7959L54.4481 67.6563V60.3021L46.5798 57.1644L44.6712 51.391L49.1662 44.3025L44.768 38.3525L36.5123 40.3716L31.5149 36.8016L30.9197 28.4835L23.8039 26.2086L18.3444 32.5989H12.1647L6.70329 26.2086L4.00989 27.0693V73.9871H45.5165Z" fill="#FF8280"/>
<path d="M28.8699 73.9871C34.4771 66.5816 32.9158 56.1098 25.3826 50.5976C18.9469 45.8885 10.0383 46.2422 4.00989 51.4465V73.9871H28.8699Z" fill="#29ABE2"/>
<path d="M54.4481 18.4538H108.921V22.4204H54.4481V18.4538Z" fill="#000124"/>
<path d="M54.4481 26.3871H88.7461V30.3537H54.4481V26.3871Z" fill="#000124"/>
<path d="M54.4481 34.3204H88.7461V38.2871H54.4481V34.3204Z" fill="#000124"/>
<path d="M70.5883 10.5204H108.921V14.4871H70.5883V10.5204Z" fill="#000124"/>
<path d="M62.5182 10.5204H66.5533V14.4871H62.5182V10.5204Z" fill="#000124"/>
<path d="M58.4832 79.937H62.5182V83.9037H58.4832V79.937Z" fill="#000124"/>
<path d="M30.8289 21.8393L33.6817 19.0349L31.073 16.4704L33.6817 13.9059L30.8289 11.1015L26.7938 15.0682C26.0062 15.8427 26.0062 17.0981 26.7938 17.8726L30.8289 21.8393Z" fill="#000124"/>
<path d="M45.7869 21.8393L49.8219 17.8726C50.6095 17.0981 50.6095 15.8427 49.8219 15.0682L45.7869 11.1015L42.9341 13.9059L45.5427 16.4704L42.9341 19.0349L45.7869 21.8393Z" fill="#000124"/>
<path d="M34.3747 21.7917L38.4138 9.8922L42.2395 11.1472L38.2004 23.0467L34.3747 21.7917Z" fill="#000124"/>
<path d="M104.886 46.2204H100.851V62.0871H96.8162V42.2537H92.7812V62.0871H88.7461V52.1704H84.7111V62.0871H80.676V50.1871H76.6409V62.0871H72.6059V54.1537H68.5708V62.0871H64.5358V66.0537H108.921V62.0871H104.886V46.2204Z" fill="#000124"/>
<path d="M1.99231 73.9871V79.9371C1.99887 86.5066 7.41467 91.8306 14.0975 91.8371H39.0785L31.0084 107.704H20.1501C16.8073 107.704 14.0975 110.368 14.0975 113.654C14.0975 116.94 16.8073 119.604 20.1501 119.604H100.851C104.194 119.604 106.904 116.94 106.904 113.654C106.904 110.368 104.194 107.704 100.851 107.704H89.9929L81.9228 91.8371H106.904C113.587 91.8306 119.002 86.5066 119.009 79.9371V12.5037C119.002 5.9342 113.587 0.61019 106.904 0.603745H14.0975C7.41467 0.61019 1.99887 5.9342 1.99231 12.5037V51.4286V51.4465V73.9871ZM42.7464 52.0058L44.657 57.7793C44.8408 58.3361 45.2653 58.7848 45.8171 59.005L52.4305 61.6408V66.3215L45.813 68.9573C45.26 69.1765 44.8348 69.6265 44.653 70.185L44.0477 72.0037H32.4247C36.946 62.6979 32.9372 51.5509 23.4709 47.1062C17.9109 44.4957 11.4079 44.6985 6.02737 47.6504V28.5092L10.6132 33.8761C10.9965 34.3251 11.5625 34.5842 12.1586 34.5842H18.3343C18.9305 34.5842 19.4964 34.3251 19.8797 33.8761L24.4676 28.5092L28.9949 29.9551L29.4953 36.9424C29.5366 37.5267 29.8387 38.0632 30.3204 38.4081L35.3179 41.9781C35.8013 42.3212 36.4136 42.4379 36.9924 42.2974L43.9186 40.6056L46.7189 44.3918L42.9441 50.3418C42.6314 50.8406 42.559 51.4497 42.7464 52.0058ZM6.02737 72.0037V52.3687C12.5531 47.364 21.9704 48.5074 27.0611 54.9228C30.9918 59.8757 31.2952 66.734 27.8167 72.0037H6.02737ZM102.869 113.654C102.869 114.749 101.965 115.637 100.851 115.637H20.1501C19.0359 115.637 18.1325 114.749 18.1325 113.654C18.1325 112.558 19.0359 111.67 20.1501 111.67H100.851C101.965 111.67 102.869 112.558 102.869 113.654ZM85.4817 107.704H35.5196L43.5897 91.8371H77.4116L85.4817 107.704ZM106.904 87.8704H14.0975C9.64051 87.8704 6.02737 84.3185 6.02737 79.9371V75.9704H28.8698H28.888H114.974V79.9371C114.974 84.3185 111.361 87.8704 106.904 87.8704ZM14.0975 4.57041H106.904C111.361 4.57041 114.974 8.12231 114.974 12.5037V72.0037H48.9099L55.2067 69.4948C55.9673 69.1914 56.4651 68.4652 56.4656 67.6583V60.3021C56.4658 59.4944 55.968 58.7672 55.2067 58.4635L48.1937 55.675L46.8662 51.6587L50.8649 45.3517C51.2987 44.6665 51.2667 43.7913 50.7842 43.1383L46.386 37.1883C45.9031 36.5346 45.0653 36.2341 44.2676 36.4287L36.9319 38.2137L33.4658 35.7385L32.9352 28.3407C32.8774 27.5342 32.3274 26.8427 31.5451 26.5933L24.4333 24.3204C23.6507 24.0755 22.7953 24.3172 22.2644 24.9333L17.4082 30.6155H13.1049L8.24665 24.9333C7.71553 24.3165 6.85884 24.0745 6.07579 24.3204L6.02737 24.3383V12.5037C6.02737 8.12231 9.64051 4.57041 14.0975 4.57041Z" fill="#000124"/>
</svg>
