<svg width="121" height="120" viewBox="0 0 121 120" fill="none" xmlns="http://www.w3.org/2000/svg">
<g clip-path="url(#clip0_304_835)">
<path fill-rule="evenodd" clip-rule="evenodd" d="M118.026 7.307V88.2667H2.99233V7.307C2.90267 5.02095 4.6737 3.09052 6.959 2.98334H114.059C116.344 3.09052 118.115 5.02095 118.026 7.307V7.307Z" fill="#02A9F4"/>
<path fill-rule="evenodd" clip-rule="evenodd" d="M114.059 2.98334H108.109C110.394 3.09052 112.165 5.02095 112.076 7.307V88.2667H118.026V7.307C118.115 5.02095 116.344 3.09052 114.059 2.98334V2.98334Z" fill="#0377BC"/>
<path fill-rule="evenodd" clip-rule="evenodd" d="M118.026 88.2667V95.843C118.115 98.1291 116.344 100.059 114.059 100.167H6.959C4.6737 100.059 2.90267 98.1291 2.99233 95.843V88.2667H118.026Z" fill="#C4C5C7"/>
<path fill-rule="evenodd" clip-rule="evenodd" d="M112.076 88.2667V95.843C112.165 98.1291 110.394 100.059 108.109 100.167H114.059C116.344 100.059 118.115 98.1291 118.026 95.843V88.2667H112.076Z" fill="#545C60"/>
<path fill-rule="evenodd" clip-rule="evenodd" d="M76.3757 100.167L82.3257 110.083H60.509H38.6923L44.6423 100.167H76.3757Z" fill="#607D8B"/>
<path fill-rule="evenodd" clip-rule="evenodd" d="M76.3757 100.167H70.4257L76.3757 110.083H82.3257L76.3757 100.167Z" fill="#37474F"/>
<path d="M90.259 110.083H30.759C28.5683 110.083 26.7923 111.859 26.7923 114.05C26.7923 116.241 28.5683 118.017 30.759 118.017H90.259C92.4497 118.017 94.2257 116.241 94.2257 114.05C94.2257 111.859 92.4497 110.083 90.259 110.083Z" fill="#C4C5C7"/>
<path fill-rule="evenodd" clip-rule="evenodd" d="M90.259 110.083H84.309C86.4998 110.083 88.2757 111.859 88.2757 114.05C88.2757 116.241 86.4998 118.017 84.309 118.017H90.259C92.4497 118.017 94.2257 116.241 94.2257 114.05C94.2257 111.859 92.4497 110.083 90.259 110.083Z" fill="#545C60"/>
<path fill-rule="evenodd" clip-rule="evenodd" d="M67.0738 48.481L87.2443 68.6515C87.9892 69.3955 88.4077 70.4051 88.4077 71.4579C88.4077 72.5107 87.9892 73.5203 87.2443 74.2643L84.428 77.0608C83.6868 77.8035 82.6807 78.2209 81.6315 78.2209C80.5823 78.2209 79.5761 77.8035 78.835 77.0608L58.6645 56.8903L67.0738 48.481Z" fill="#91562D"/>
<path fill-rule="evenodd" clip-rule="evenodd" d="M38.2496 36.482L46.6573 28.0743L58.6351 40.052L50.2274 48.4597L38.2496 36.482Z" fill="#91562D"/>
<path fill-rule="evenodd" clip-rule="evenodd" d="M53.6804 21.0654L34.0454 40.7004C33.3014 41.4452 32.2917 41.8637 31.239 41.8637C30.1862 41.8637 29.1766 41.4452 28.4325 40.7004L20.0232 32.2712C19.2784 31.5272 18.8598 30.5176 18.8598 29.4648C18.8598 28.412 19.2784 27.4024 20.0232 26.6584L34.6007 12.0809C35.5847 11.0923 37.0155 10.6932 38.369 11.0297L51.8359 14.4014C53.2271 14.7453 54.3246 15.8128 54.7069 17.194C55.0892 18.5751 54.6967 20.0551 53.6804 21.0654V21.0654Z" fill="#C4C5C7"/>
<path fill-rule="evenodd" clip-rule="evenodd" d="M90.8143 32.771C87.9908 34.6205 84.5118 35.1762 81.2527 34.2982L50.1838 65.3691C51.2127 69.2225 50.2405 73.335 47.595 76.3197C44.9494 79.3044 40.9833 80.7634 37.0343 80.2044C36.2912 80.1125 35.6644 79.6075 35.4163 78.9011C35.1682 78.1947 35.3417 77.4088 35.8641 76.8724L37.2921 75.4444C38.0564 74.6453 38.4611 73.5686 38.4124 72.4639C38.3637 71.3592 37.8659 70.3224 37.0343 69.5936C35.3642 68.3003 32.9884 68.4712 31.5206 69.9902L30.2513 71.2596C29.7422 71.7823 28.9837 71.9767 28.286 71.7632C27.5883 71.5497 27.0684 70.9642 26.9391 70.2461C26.3191 66.2822 27.7476 62.2739 30.7347 59.5954C33.7219 56.917 37.8617 55.9326 41.7348 56.9796L72.8434 25.869C71.79 21.9858 72.7775 17.8334 75.4662 14.8402C78.155 11.847 82.178 10.4213 86.1515 11.0535C86.8587 11.2066 87.4265 11.7327 87.6329 12.4262C87.8393 13.1197 87.6516 13.8706 87.1432 14.3855L85.8739 15.635C84.355 17.0948 84.1838 19.466 85.4772 21.1288C86.1952 21.9755 87.2324 22.4861 88.3413 22.5387C89.4501 22.5913 90.5311 22.1813 91.326 21.4065L92.754 19.9785C93.2854 19.4509 94.0706 19.2714 94.7784 19.5157C95.4862 19.7601 95.9934 20.3858 96.086 21.1288C96.7533 25.7061 94.6945 30.2529 90.8143 32.771V32.771Z" fill="#C4C5C7"/>
<path d="M114.059 1H6.95872C3.57666 1.10792 0.91749 3.92841 1.00872 7.31097V95.839C0.91749 99.2216 3.57666 102.042 6.95872 102.15H41.1395L37.5695 108.1H30.7587C27.4726 108.1 24.8087 110.764 24.8087 114.05C24.8087 117.336 27.4726 120 30.7587 120H90.2587C93.5448 120 96.2087 117.336 96.2087 114.05C96.2087 110.764 93.5448 108.1 90.2587 108.1H83.448L79.878 102.15H114.059C117.441 102.042 120.1 99.2216 120.009 95.839V7.31097C120.1 3.92841 117.441 1.10792 114.059 1ZM6.95872 4.96667H114.059C115.242 5.08887 116.118 6.12378 116.042 7.31097V86.2833H4.97538V7.31097C4.89987 6.12378 5.77543 5.08887 6.95872 4.96667ZM92.2421 114.05C92.2421 115.145 91.3541 116.033 90.2587 116.033H30.7587C29.6634 116.033 28.7754 115.145 28.7754 114.05C28.7754 112.955 29.6634 112.067 30.7587 112.067H90.2587C91.3541 112.067 92.2421 112.955 92.2421 114.05ZM78.8228 108.1H42.1946L45.7646 102.15H75.2528L78.8228 108.1ZM114.059 98.1833H6.95872C5.77543 98.0611 4.89987 97.0262 4.97538 95.839V90.25H116.042V95.839C116.118 97.0262 115.242 98.0611 114.059 98.1833Z" fill="black"/>
<path d="M27.0303 42.1026C28.1463 43.2193 29.6603 43.8467 31.239 43.8467C32.8177 43.8467 34.3317 43.2193 35.4476 42.1026L38.26 39.2902L47.4388 48.4691L41.0922 54.8158C36.6905 54.0194 32.1756 55.4017 28.9743 58.5258C25.773 61.6499 24.2809 66.1298 24.9697 70.5496C25.1901 71.9866 26.2025 73.1762 27.5857 73.6237C29.0125 74.099 30.5854 73.7265 31.6475 72.6618L32.905 71.4004C33.6429 70.6152 34.8435 70.4863 35.7312 71.097C36.1597 71.4753 36.4113 72.015 36.4254 72.5865C36.4572 73.126 36.2598 73.6539 35.882 74.0402L34.454 75.4702C33.4037 76.5129 33.0362 78.0613 33.5059 79.4647C33.9806 80.9069 35.2333 81.9543 36.7368 82.166C37.4131 82.2661 38.0959 82.3165 38.7796 82.3167C42.8695 82.287 46.7381 80.4555 49.3533 77.3109C51.9685 74.1663 53.064 70.0285 52.3476 66.0018L58.6566 59.6948L77.4249 78.4631C78.5378 79.5763 80.0474 80.2018 81.6216 80.2018C83.1957 80.2018 84.7054 79.5763 85.8183 78.4631L88.6485 75.6527C90.9497 73.3202 90.9452 69.5704 88.6386 67.2434L69.8763 48.481L81.8854 36.4719C86.2637 37.2477 90.7488 35.8794 93.9484 32.7916C97.148 29.7038 98.6751 25.2703 98.0555 20.8671C97.8635 19.3755 96.8406 18.1226 95.4175 17.6362C93.9945 17.1497 92.4186 17.5143 91.3538 18.5763L89.9278 20.0043C89.5318 20.3771 89.0037 20.5769 88.4601 20.5596C87.8916 20.5389 87.3582 20.2797 86.9905 19.8456C86.3714 18.975 86.4899 17.781 87.2681 17.0491L88.5474 15.7877C89.6035 14.7324 89.9776 13.1733 89.5153 11.7536C89.0769 10.3611 87.8932 9.33297 86.453 9.09399C82.0226 8.39236 77.527 9.88143 74.3914 13.0891C71.2559 16.2967 69.8694 20.8251 70.6716 25.2383L58.6526 37.2573L49.4737 28.0765L55.0826 22.4656C56.6029 20.9501 57.189 18.7332 56.6163 16.6644C56.0437 14.5956 54.401 12.9956 52.3178 12.4776L38.849 9.10589C36.8201 8.60859 34.6787 9.20464 33.1985 10.6787L18.6111 25.2641C16.3107 27.5945 16.3107 31.3411 18.6111 33.6715L27.0303 42.1026ZM85.8421 70.0537C86.6075 70.8311 86.6075 72.0788 85.8421 72.8562L83.0218 75.6586C82.2428 76.4067 81.0123 76.4067 80.2333 75.6586L61.465 56.8884L67.0679 51.2854L85.8421 70.0537ZM74.2456 27.2712C74.7482 26.7694 74.9441 26.0371 74.7593 25.3514C73.8916 22.1312 74.7027 18.6906 76.9173 16.197C79.132 13.7035 82.4528 12.4919 85.7529 12.9734L84.4637 14.2447C82.2262 16.4338 82.0094 19.9614 83.9619 22.4081C85.0389 23.6789 86.5965 24.4437 88.2606 24.519C89.9246 24.5942 91.5449 23.9731 92.7322 22.8048L94.1205 21.4045C94.6793 25.2262 92.9591 29.0229 89.7176 31.1229C87.3697 32.6537 84.4816 33.1138 81.7743 32.3882C81.0871 32.2006 80.3519 32.3959 79.8485 32.8999L48.7816 63.9649C48.2817 64.4651 48.086 65.1935 48.2679 65.8768C49.0088 68.5894 48.5472 71.4896 47.0005 73.8379C44.8947 77.0829 41.099 78.8133 37.2683 78.2747L38.6923 76.8447C39.8463 75.6769 40.4627 74.0819 40.394 72.4417C40.3346 70.761 39.5796 69.1806 38.3096 68.0783C37.2616 67.2093 35.9403 66.7386 34.5789 66.7495C32.9078 66.7551 31.3056 67.416 30.1164 68.59L28.8967 69.9486C28.3788 66.6458 29.569 63.3055 32.0586 61.0742C34.5482 58.8429 37.9985 58.0243 41.2251 58.8995C41.9078 59.0805 42.6352 58.8849 43.135 58.3858L74.2456 27.2712ZM55.8482 40.0717L50.2433 45.6647L41.0723 36.4858L46.6753 30.8809L55.8482 40.0717ZM21.4254 28.0606L36.0029 13.4831C36.373 13.1056 36.8785 12.8914 37.4071 12.8881C37.5688 12.8885 37.7299 12.9078 37.8871 12.9456L51.352 16.3173C52.0499 16.4874 52.6012 17.0215 52.7934 17.7136C52.9856 18.4058 52.7885 19.1477 52.2782 19.6533L32.6432 39.2883C31.8572 40.0343 30.6247 40.0343 29.8387 39.2883L21.4254 30.869C21.0524 30.4969 20.8428 29.9917 20.8428 29.4648C20.8428 28.9379 21.0524 28.4327 21.4254 28.0606V28.0606Z" fill="black"/>
</g>
<defs>
<clipPath id="clip0_304_835">
<rect width="119" height="119" fill="white" transform="translate(1.009 1)"/>
</clipPath>
</defs>
</svg>
