<svg width="1656" height="717" viewBox="0 0 1656 717" fill="none" xmlns="http://www.w3.org/2000/svg">
<mask id="mask0_1201_363" style="mask-type:alpha" maskUnits="userSpaceOnUse" x="26" y="178" width="1600" height="365">
<path d="M26.4371 203.068H76.9926L165.465 452.235L157.791 449.075L222.339 282.061L242.652 341.193L156.437 542.512L26.4371 203.068ZM183.069 203.068H226.853L322.548 448.623L313.52 446.818L397.929 203.068H444.422L316.228 542.061L183.069 203.068ZM493.236 340.742H535.215V527.616H493.236V340.742ZM490.076 273.034C490.076 266.413 492.634 260.846 497.75 256.332C503.166 251.818 509.034 249.561 515.354 249.561C521.673 249.561 527.24 251.818 532.055 256.332C537.171 260.846 539.729 266.413 539.729 273.034C539.729 279.955 537.171 285.672 532.055 290.186C527.24 294.399 521.673 296.506 515.354 296.506C509.034 296.506 503.166 294.249 497.75 289.735C492.634 285.221 490.076 279.654 490.076 273.034ZM607.846 527.616V178.242H649.825V527.616H607.846ZM694.964 403.485L780.727 527.616H731.526L666.978 426.957L694.964 403.485ZM636.735 468.033L632.672 427.86L745.971 336.679L771.7 358.797L636.735 468.033ZM870.123 340.742L873.735 386.332L871.929 379.11C877.947 365.267 887.728 354.283 901.269 346.158C914.811 337.732 930.459 333.52 948.214 333.52C965.968 333.52 980.413 338.786 991.547 349.318C1002.98 359.55 1008.85 372.941 1009.15 389.492V527.616H966.72V404.387C966.42 394.156 963.41 385.881 957.693 379.561C952.276 372.941 943.7 369.631 931.964 369.631C921.13 369.631 911.35 372.64 902.623 378.658C893.897 384.677 886.975 392.952 881.86 403.485C877.045 414.017 874.637 426.205 874.637 440.047V527.616H832.658V340.742H870.123ZM1168.82 532.13C1147.46 532.13 1129.1 527.917 1113.75 519.491C1098.41 510.765 1086.52 499.028 1078.09 484.283C1069.97 469.237 1065.91 452.084 1065.91 432.825C1065.91 414.468 1070.57 397.767 1079.9 382.721C1089.23 367.675 1101.72 355.638 1117.36 346.61C1133.01 337.582 1150.47 333.068 1169.73 333.068C1194.4 333.068 1214.86 340.29 1231.11 354.735C1247.36 369.179 1258.35 389.04 1264.07 414.318L1110.14 468.485L1100.21 443.658L1226.6 397.617L1217.57 403.485C1213.96 393.554 1207.94 384.978 1199.52 377.756C1191.09 370.232 1180.11 366.471 1166.57 366.471C1155.13 366.471 1144.9 369.33 1135.87 375.047C1126.84 380.464 1119.77 387.987 1114.66 397.617C1109.54 407.246 1106.98 418.23 1106.98 430.568C1106.98 443.508 1109.69 454.943 1115.11 464.873C1120.52 474.503 1127.9 482.177 1137.23 487.894C1146.85 493.311 1157.69 496.019 1169.73 496.019C1177.85 496.019 1185.67 494.515 1193.2 491.505C1201.02 488.496 1208.24 484.584 1214.86 479.769L1234.27 510.915C1224.94 517.234 1214.41 522.35 1202.68 526.262C1191.24 530.174 1179.96 532.13 1168.82 532.13ZM1369.03 531.227C1355.79 531.227 1342.85 528.97 1330.21 524.457C1317.87 519.642 1307.64 512.57 1299.51 503.241L1317.12 478.866C1324.94 486.39 1332.92 492.107 1341.04 496.019C1349.47 499.63 1357.74 501.436 1365.87 501.436C1371.89 501.436 1377.45 500.684 1382.57 499.179C1387.68 497.674 1391.75 495.267 1394.76 491.957C1398.07 488.346 1399.72 483.531 1399.72 477.512C1399.72 470.892 1397.46 465.626 1392.95 461.714C1388.74 457.802 1383.17 454.642 1376.25 452.235C1369.63 449.827 1362.56 447.57 1355.03 445.464C1339.69 440.348 1327.95 433.276 1319.83 424.249C1311.7 415.221 1307.64 404.237 1307.64 391.297C1307.64 381.367 1310.05 372.188 1314.86 363.763C1319.98 355.036 1327.35 347.964 1336.98 342.547C1346.91 337.131 1359.1 334.422 1373.54 334.422C1386.48 334.422 1398.07 336.077 1408.3 339.388C1418.53 342.397 1428.16 347.513 1437.19 354.735L1420.49 380.915C1415.07 375.198 1408.6 370.985 1401.08 368.276C1393.55 365.568 1386.78 364.063 1380.76 363.763C1375.65 363.462 1370.68 364.214 1365.87 366.019C1361.35 367.825 1357.59 370.383 1354.58 373.693C1351.57 377.003 1350.07 380.915 1350.07 385.429C1350.07 391.749 1352.18 396.864 1356.39 400.776C1360.6 404.688 1366.02 407.848 1372.64 410.255C1379.56 412.362 1386.33 414.619 1392.95 417.026C1402.28 419.735 1410.55 423.346 1417.78 427.86C1425 432.373 1430.72 437.941 1434.93 444.561C1439.44 451.181 1441.7 459.457 1441.7 469.387C1441.7 480.522 1438.99 490.903 1433.58 500.533C1428.46 509.862 1420.49 517.385 1409.65 523.102C1399.12 528.519 1385.58 531.227 1369.03 531.227ZM1552.84 531.227C1539.6 531.227 1526.66 528.97 1514.02 524.457C1501.69 519.642 1491.46 512.57 1483.33 503.241L1500.93 478.866C1508.76 486.39 1516.73 492.107 1524.86 496.019C1533.28 499.63 1541.56 501.436 1549.68 501.436C1555.7 501.436 1561.27 500.684 1566.39 499.179C1571.5 497.674 1575.56 495.267 1578.57 491.957C1581.88 488.346 1583.54 483.531 1583.54 477.512C1583.54 470.892 1581.28 465.626 1576.77 461.714C1572.55 457.802 1566.99 454.642 1560.07 452.235C1553.45 449.827 1546.37 447.57 1538.85 445.464C1523.5 440.348 1511.77 433.276 1503.64 424.249C1495.52 415.221 1491.46 404.237 1491.46 391.297C1491.46 381.367 1493.86 372.188 1498.68 363.763C1503.79 355.036 1511.17 347.964 1520.8 342.547C1530.73 337.131 1542.91 334.422 1557.36 334.422C1570.3 334.422 1581.88 336.077 1592.11 339.388C1602.35 342.397 1611.98 347.513 1621 354.735L1604.3 380.915C1598.89 375.198 1592.42 370.985 1584.89 368.276C1577.37 365.568 1570.6 364.063 1564.58 363.763C1559.46 363.462 1554.5 364.214 1549.68 366.019C1545.17 367.825 1541.41 370.383 1538.4 373.693C1535.39 377.003 1533.89 380.915 1533.89 385.429C1533.89 391.749 1535.99 396.864 1540.21 400.776C1544.42 404.688 1549.83 407.848 1556.46 410.255C1563.38 412.362 1570.15 414.619 1576.77 417.026C1586.1 419.735 1594.37 423.346 1601.59 427.86C1608.82 432.373 1614.53 437.941 1618.75 444.561C1623.26 451.181 1625.52 459.457 1625.52 469.387C1625.52 480.522 1622.81 490.903 1617.39 500.533C1612.28 509.862 1604.3 517.385 1593.47 523.102C1582.94 528.519 1569.39 531.227 1552.84 531.227Z" fill="#C4C4C4"/>
</mask>
<g mask="url(#mask0_1201_363)">
<path d="M0.289551 0.538116H1655.38V696.428L0.289551 0.538116Z" fill="#66BFFF"/>
<path d="M0.289551 0.538116L1655.38 696.428H0.289551V0.538116Z" fill="#151FFF"/>
</g>
</svg>
